<?xml version="1.0" encoding="UTF-8"?>
<svg id="Lag_1" data-name="Lag 1" xmlns="http://www.w3.org/2000/svg" viewBox="0 0 95.57 165.42">
  <path d="M48.16,72.75l29.27,1.22v-12.3s-6.03-8.86-23.24-9.8c0,0-14.65-.49-16.1,13.15l-.79,7.38,10.86.35Z" style="fill: none; stroke: #000; stroke-miterlimit: 10; stroke-width: 2px;"/>
  <path d="M88.06,133.45l-1.64-12.19.82-2.46s-1.94-1.01-4.14-5.93-8.91-38.91-8.91-38.91l-36.9-1.57s-.89,1.68,1.91,3.58c0,0-4.7,37.57-11.74,43.38l1.57,2.12-9.52,42.09,74.83.83-6.28-30.96Z" style="fill: none; stroke: #000; stroke-miterlimit: 10; stroke-width: 2px;"/>
  <path d="M64.05,90.36h2.64l-.34-3.73s-1.03-1.58-2.45,0l.14,3.73Z" style="fill: none; stroke: #000; stroke-miterlimit: 10; stroke-width: 2px;"/>
  <polygon points="38.5 65.51 4.87 117.62 3.45 117.62 3.45 115.24 1.14 110.17 29.62 68.62 31.11 69.66 35.88 59.52 33.38 55.24 31.93 56.92 10.91 26.06 13.14 23.97 18.81 16.37 42.06 47.67 41.22 48.42 35.65 53.34 38.19 56.32 42.6 49.47 41.31 48.47 66.3 1 68.39 1 70.18 2.79 69.58 4.2 73.45 9.27 50.72 56.98 45.13 51.98 41.11 59.73 64.06 102.11 62.87 105.68 63.24 107.4 62.13 107.4 58.03 113.36 42.52 79.67 43.94 72.66 38.5 65.51" style="fill: #7e1200; stroke: #000; stroke-miterlimit: 10; stroke-width: 2px;"/>
  <line x1="33.38" y1="55.24" x2="35.65" y2="53.34" style="fill: none; stroke: #000; stroke-miterlimit: 10; stroke-width: 2px;"/>
  <polygon points="66.41 140.07 72.89 140.07 73.38 146.78 66.97 146.78 66.41 140.07" style="fill: none; stroke: #000; stroke-miterlimit: 10; stroke-width: 2px;"/>
  <polygon points="63.91 120.93 70.4 120.93 70.88 127.64 64.47 127.64 63.91 120.93" style="fill: none; stroke: #000; stroke-miterlimit: 10; stroke-width: 2px;"/>
  <path d="M64.76,106.01h2.64l-.34-3.73s-1.03-1.58-2.45,0l.14,3.73Z" style="fill: none; stroke: #000; stroke-miterlimit: 10; stroke-width: 2px;"/>
</svg>